<svg 
 xmlns="http://www.w3.org/2000/svg"
 xmlns:xlink="http://www.w3.org/1999/xlink"
 width="30px" height="19px">
<path fill-rule="evenodd"  fill="rgb(255, 255, 255)"
 d="M29.269,10.691 L17.294,18.521 C16.628,18.957 15.676,19.068 14.838,18.890 C14.052,19.013 13.197,18.901 12.583,18.500 L0.689,10.722 C-0.249,10.108 -0.249,9.113 0.689,8.499 C1.627,7.886 3.149,7.886 4.087,8.499 L14.932,15.591 L25.847,8.453 C26.792,7.836 28.324,7.836 29.269,8.453 C30.213,9.071 30.213,10.073 29.269,10.691 ZM16.682,7.652 C16.194,7.968 15.495,8.050 14.881,7.920 C14.305,8.009 13.677,7.928 13.228,7.636 L4.505,1.979 C3.817,1.533 3.817,0.809 4.505,0.363 C5.193,-0.083 6.309,-0.083 6.997,0.363 L14.950,5.521 L22.955,0.330 C23.647,-0.120 24.771,-0.120 25.464,0.330 C26.157,0.779 26.157,1.507 25.464,1.957 L16.682,7.652 Z"/>
</svg>